<mxfile host="app.diagrams.net" modified="2022-09-22T08:20:21.011Z" agent="5.0 (Macintosh; Intel Mac OS X 10_15_7) AppleWebKit/537.36 (KHTML, like Gecko) Chrome/105.0.0.0 Safari/537.36" etag="5YNtFbBk29BYbJ9wg4jY" version="20.3.3" type="github">
  <diagram id="dLsT6jIH5VIg3OpLpuIP" name="Page-1">
    <mxGraphModel dx="1426" dy="794" grid="1" gridSize="10" guides="1" tooltips="1" connect="1" arrows="1" fold="1" page="1" pageScale="1" pageWidth="850" pageHeight="1100" math="0" shadow="0">
      <root>
        <mxCell id="0" />
        <mxCell id="1" parent="0" />
        <mxCell id="DpxDroA3MUpd-SQL_Dhd-1" value="&lt;font style=&quot;font-size: 16px;&quot;&gt;Execution Chain&lt;/font&gt;" style="shape=cube;whiteSpace=wrap;html=1;boundedLbl=1;backgroundOutline=1;darkOpacity=0.05;darkOpacity2=0.1;" vertex="1" parent="1">
          <mxGeometry x="160" y="370" width="120" height="80" as="geometry" />
        </mxCell>
        <mxCell id="DpxDroA3MUpd-SQL_Dhd-5" value="&lt;font style=&quot;font-size: 16px;&quot;&gt;Execution Chain&lt;/font&gt;" style="shape=cube;whiteSpace=wrap;html=1;boundedLbl=1;backgroundOutline=1;darkOpacity=0.05;darkOpacity2=0.1;" vertex="1" parent="1">
          <mxGeometry x="350" y="370" width="120" height="80" as="geometry" />
        </mxCell>
        <mxCell id="DpxDroA3MUpd-SQL_Dhd-6" value="&lt;font style=&quot;font-size: 16px;&quot;&gt;Execution Chain&lt;/font&gt;" style="shape=cube;whiteSpace=wrap;html=1;boundedLbl=1;backgroundOutline=1;darkOpacity=0.05;darkOpacity2=0.1;" vertex="1" parent="1">
          <mxGeometry x="540" y="370" width="120" height="80" as="geometry" />
        </mxCell>
        <mxCell id="DpxDroA3MUpd-SQL_Dhd-7" value="&lt;font style=&quot;font-size: 16px;&quot;&gt;Execution Chain&lt;/font&gt;" style="shape=cube;whiteSpace=wrap;html=1;boundedLbl=1;backgroundOutline=1;darkOpacity=0.05;darkOpacity2=0.1;" vertex="1" parent="1">
          <mxGeometry x="730" y="370" width="120" height="80" as="geometry" />
        </mxCell>
        <mxCell id="DpxDroA3MUpd-SQL_Dhd-8" value="&lt;font style=&quot;font-size: 16px;&quot;&gt;Beacon Chain&lt;/font&gt;" style="shape=cube;whiteSpace=wrap;html=1;boundedLbl=1;backgroundOutline=1;darkOpacity=0.05;darkOpacity2=0.1;" vertex="1" parent="1">
          <mxGeometry x="160" y="280" width="120" height="60" as="geometry" />
        </mxCell>
        <mxCell id="DpxDroA3MUpd-SQL_Dhd-9" value="&lt;font style=&quot;font-size: 16px;&quot;&gt;Beacon Chain&lt;/font&gt;" style="shape=cube;whiteSpace=wrap;html=1;boundedLbl=1;backgroundOutline=1;darkOpacity=0.05;darkOpacity2=0.1;" vertex="1" parent="1">
          <mxGeometry x="350" y="280" width="120" height="60" as="geometry" />
        </mxCell>
        <mxCell id="DpxDroA3MUpd-SQL_Dhd-10" value="&lt;font style=&quot;font-size: 16px;&quot;&gt;Beacon Chain&lt;/font&gt;" style="shape=cube;whiteSpace=wrap;html=1;boundedLbl=1;backgroundOutline=1;darkOpacity=0.05;darkOpacity2=0.1;" vertex="1" parent="1">
          <mxGeometry x="540" y="280" width="120" height="60" as="geometry" />
        </mxCell>
        <mxCell id="DpxDroA3MUpd-SQL_Dhd-11" value="&lt;font style=&quot;font-size: 16px;&quot;&gt;Beacon Chain&lt;/font&gt;" style="shape=cube;whiteSpace=wrap;html=1;boundedLbl=1;backgroundOutline=1;darkOpacity=0.05;darkOpacity2=0.1;" vertex="1" parent="1">
          <mxGeometry x="730" y="280" width="120" height="60" as="geometry" />
        </mxCell>
        <mxCell id="DpxDroA3MUpd-SQL_Dhd-15" value="" style="endArrow=classic;html=1;rounded=0;strokeWidth=1.5;fontSize=16;exitX=-0.021;exitY=0.525;exitDx=0;exitDy=0;exitPerimeter=0;" edge="1" parent="1">
          <mxGeometry width="50" height="50" relative="1" as="geometry">
            <mxPoint x="540" y="409.5" as="sourcePoint" />
            <mxPoint x="472.52" y="409.5" as="targetPoint" />
          </mxGeometry>
        </mxCell>
        <mxCell id="DpxDroA3MUpd-SQL_Dhd-16" value="" style="endArrow=classic;html=1;rounded=0;strokeWidth=1.5;fontSize=16;exitX=-0.021;exitY=0.525;exitDx=0;exitDy=0;exitPerimeter=0;" edge="1" parent="1">
          <mxGeometry width="50" height="50" relative="1" as="geometry">
            <mxPoint x="350" y="409.5" as="sourcePoint" />
            <mxPoint x="282.52" y="409.5" as="targetPoint" />
          </mxGeometry>
        </mxCell>
        <mxCell id="DpxDroA3MUpd-SQL_Dhd-17" value="" style="endArrow=classic;html=1;rounded=0;strokeWidth=1.5;fontSize=16;exitX=-0.021;exitY=0.525;exitDx=0;exitDy=0;exitPerimeter=0;" edge="1" parent="1">
          <mxGeometry width="50" height="50" relative="1" as="geometry">
            <mxPoint x="730" y="409.5" as="sourcePoint" />
            <mxPoint x="662.52" y="409.5" as="targetPoint" />
          </mxGeometry>
        </mxCell>
        <mxCell id="DpxDroA3MUpd-SQL_Dhd-18" value="" style="endArrow=classic;html=1;rounded=0;strokeWidth=1.5;fontSize=16;exitX=-0.021;exitY=0.525;exitDx=0;exitDy=0;exitPerimeter=0;" edge="1" parent="1">
          <mxGeometry width="50" height="50" relative="1" as="geometry">
            <mxPoint x="730" y="309.5" as="sourcePoint" />
            <mxPoint x="662.52" y="309.5" as="targetPoint" />
          </mxGeometry>
        </mxCell>
        <mxCell id="DpxDroA3MUpd-SQL_Dhd-19" value="" style="endArrow=classic;html=1;rounded=0;strokeWidth=1.5;fontSize=16;exitX=-0.021;exitY=0.525;exitDx=0;exitDy=0;exitPerimeter=0;" edge="1" parent="1">
          <mxGeometry width="50" height="50" relative="1" as="geometry">
            <mxPoint x="540" y="309.5" as="sourcePoint" />
            <mxPoint x="472.52" y="309.5" as="targetPoint" />
          </mxGeometry>
        </mxCell>
        <mxCell id="DpxDroA3MUpd-SQL_Dhd-20" value="" style="endArrow=classic;html=1;rounded=0;strokeWidth=1.5;fontSize=16;exitX=-0.021;exitY=0.525;exitDx=0;exitDy=0;exitPerimeter=0;" edge="1" parent="1">
          <mxGeometry width="50" height="50" relative="1" as="geometry">
            <mxPoint x="350" y="309.5" as="sourcePoint" />
            <mxPoint x="282.52" y="309.5" as="targetPoint" />
          </mxGeometry>
        </mxCell>
        <mxCell id="DpxDroA3MUpd-SQL_Dhd-22" value="" style="endArrow=none;html=1;rounded=0;strokeWidth=1.5;fontSize=16;strokeColor=#FF6666;entryX=0;entryY=0;entryDx=70;entryDy=60;entryPerimeter=0;" edge="1" parent="1" target="DpxDroA3MUpd-SQL_Dhd-8">
          <mxGeometry width="50" height="50" relative="1" as="geometry">
            <mxPoint x="230" y="379.04" as="sourcePoint" />
            <mxPoint x="230" y="350" as="targetPoint" />
          </mxGeometry>
        </mxCell>
        <mxCell id="DpxDroA3MUpd-SQL_Dhd-23" value="" style="endArrow=none;html=1;rounded=0;strokeWidth=1.5;fontSize=16;strokeColor=#FF6666;entryX=0;entryY=0;entryDx=70;entryDy=60;entryPerimeter=0;" edge="1" parent="1">
          <mxGeometry width="50" height="50" relative="1" as="geometry">
            <mxPoint x="420" y="379.03999999999996" as="sourcePoint" />
            <mxPoint x="420" y="340" as="targetPoint" />
          </mxGeometry>
        </mxCell>
        <mxCell id="DpxDroA3MUpd-SQL_Dhd-24" value="" style="endArrow=none;html=1;rounded=0;strokeWidth=1.5;fontSize=16;strokeColor=#FF6666;entryX=0;entryY=0;entryDx=70;entryDy=60;entryPerimeter=0;" edge="1" parent="1">
          <mxGeometry width="50" height="50" relative="1" as="geometry">
            <mxPoint x="610" y="379.03999999999996" as="sourcePoint" />
            <mxPoint x="610" y="340" as="targetPoint" />
          </mxGeometry>
        </mxCell>
        <mxCell id="DpxDroA3MUpd-SQL_Dhd-25" value="" style="endArrow=none;html=1;rounded=0;strokeWidth=1.5;fontSize=16;strokeColor=#FF6666;entryX=0;entryY=0;entryDx=70;entryDy=60;entryPerimeter=0;" edge="1" parent="1">
          <mxGeometry width="50" height="50" relative="1" as="geometry">
            <mxPoint x="800" y="379.03999999999996" as="sourcePoint" />
            <mxPoint x="800" y="340" as="targetPoint" />
          </mxGeometry>
        </mxCell>
        <mxCell id="DpxDroA3MUpd-SQL_Dhd-26" value="&lt;font style=&quot;font-size: 12px;&quot;&gt;Engine API&lt;/font&gt;" style="text;html=1;strokeColor=none;fillColor=none;align=center;verticalAlign=middle;whiteSpace=wrap;rounded=0;fontSize=16;" vertex="1" parent="1">
          <mxGeometry x="260" y="350" width="100" height="20" as="geometry" />
        </mxCell>
        <mxCell id="DpxDroA3MUpd-SQL_Dhd-27" value="&lt;font style=&quot;font-size: 12px;&quot;&gt;Engine API&lt;/font&gt;" style="text;html=1;strokeColor=none;fillColor=none;align=center;verticalAlign=middle;whiteSpace=wrap;rounded=0;fontSize=16;" vertex="1" parent="1">
          <mxGeometry x="450" y="350" width="100" height="20" as="geometry" />
        </mxCell>
        <mxCell id="DpxDroA3MUpd-SQL_Dhd-28" value="&lt;font style=&quot;font-size: 12px;&quot;&gt;Engine API&lt;/font&gt;" style="text;html=1;strokeColor=none;fillColor=none;align=center;verticalAlign=middle;whiteSpace=wrap;rounded=0;fontSize=16;" vertex="1" parent="1">
          <mxGeometry x="640" y="350" width="100" height="20" as="geometry" />
        </mxCell>
      </root>
    </mxGraphModel>
  </diagram>
</mxfile>
